<?xml version="1.0" encoding="UTF-8" standalone="no"?>
<!-- Created with Inkscape (http://www.inkscape.org/) -->

<svg
   width="134.16348mm"
   height="134.16176mm"
   viewBox="0 0 134.16348 134.16176"
   version="1.1"
   id="svg5"
   xml:space="preserve"
   inkscape:version="1.2.2 (732a01da63, 2022-12-09)"
   sodipodi:docname="ogham_osm_logo.svg"
   inkscape:export-filename="ogham_osm_logo.png"
   inkscape:export-xdpi="378.64255"
   inkscape:export-ydpi="378.64255"
   xmlns:inkscape="http://www.inkscape.org/namespaces/inkscape"
   xmlns:sodipodi="http://sodipodi.sourceforge.net/DTD/sodipodi-0.dtd"
   xmlns="http://www.w3.org/2000/svg"
   xmlns:svg="http://www.w3.org/2000/svg"><sodipodi:namedview
     id="namedview7"
     pagecolor="#ffffff"
     bordercolor="#666666"
     borderopacity="1.0"
     inkscape:showpageshadow="2"
     inkscape:pageopacity="0.0"
     inkscape:pagecheckerboard="0"
     inkscape:deskcolor="#d1d1d1"
     inkscape:document-units="mm"
     showgrid="false"
     inkscape:zoom="1"
     inkscape:cx="-77.5"
     inkscape:cy="242.5"
     inkscape:window-width="1920"
     inkscape:window-height="991"
     inkscape:window-x="-9"
     inkscape:window-y="-9"
     inkscape:window-maximized="1"
     inkscape:current-layer="layer1" /><defs
     id="defs2" /><g
     inkscape:label="Ebene 1"
     inkscape:groupmode="layer"
     id="layer1"
     transform="translate(-41.522738,-28.963079)"><g
       id="g154"
       transform="matrix(5.5901052,0,0,5.5901052,41.522294,28.965632)"><path
         fill="#404a5d"
         d="M 23.947,6.615 C 23.609,4.4 22.429,2.518 20.615,1.3 17.313,-0.922 12.843,-0.233 10.348,2.881 A 7.621,7.621 0 0 0 8.677,7.654 c 0,0.593 0.067,1.171 0.185,1.674 0.181,0.8 0.582,1.767 1.007,2.429 L 10.087,12.1 8.341,13.844 8.064,13.704 C 7.822,13.58 7.745,13.564 7.443,13.564 6.793,13.562 6.979,13.405 3.374,17.013 c -3.568,3.572 -3.372,3.341 -3.372,3.986 -0.004,0.58 0.067,0.689 1.184,1.802 0.938,0.934 1.12,1.079 1.473,1.168 L 2.66,23.97 c 0.255,0.065 0.675,0.019 0.946,-0.106 0.212,-0.097 0.638,-0.505 3.402,-3.261 3.586,-3.582 3.433,-3.398 3.43,-4.049 0,-0.301 -0.015,-0.376 -0.14,-0.617 l -0.14,-0.28 1.746,-1.744 0.343,0.218 c 1.338,0.858 3.087,1.294 4.662,1.163 1.107,-0.093 1.924,-0.32 2.885,-0.803 l 0.04,-0.017 a 6.745,6.745 0 0 0 1.905,-1.384 l 10e-4,-10e-4 a 7.56,7.56 0 0 0 2.207,-4.401 c 0.071,-0.494 0.071,-1.607 0,-2.073 z m -1.848,3.826 -0.017,0.038 a 6.456,6.456 0 0 1 -4.592,3.472 l 0.001,0.002 c -0.524,0.095 -1.558,0.115 -2.068,0.037 L 15.388,13.986 A 6.422,6.422 0 0 1 11.521,11.857 6.353,6.353 0 0 1 9.945,7.66 c 0,-1.393 0.447,-2.682 1.193,-3.713 0.309,-0.437 1.036,-1.164 1.482,-1.481 a 6.59,6.59 0 0 1 2.462,-1.07 c 0.606,-0.129 1.835,-0.142 2.417,-0.025 0.839,0.168 1.731,0.532 2.37,0.962 2.686,1.801 3.623,5.208 2.23,8.108 z"
         id="path142"
         style="fill:#004c55;fill-opacity:1" /><path
         fill="#95ca6e"
         d="M 2.0928452,5.8773478 C 3.8971624,5.7781563 5.4714166,6.2773865 7.085,6.742 7.119,6.745 9.3649176,2.2342499 9.3169176,2.1832499 c -0.041,-0.042 -7.7744196,-0.7924333 -7.8004196,-0.7674333 -0.016,0.018 0.5363472,4.3995312 0.5763472,4.4615312 z M 17.61188,16.567736 c -1.109099,-0.686421 -5.514505,-0.603389 -5.537505,-0.577389 -0.05,0.053 -2.3304643,3.903264 -2.3054643,3.931264 l 1.7270963,0.648724 c 0.257201,0.07706 0.940993,0.40267 2.250993,0.756667 l -10e-4,-0.001 c 1.192,0.344 2.063841,0.486008 2.091841,0.489008 0.028,0 0.190326,-0.341151 0.215326,-0.428151 0.04868,-0.400729 1.607824,-4.7913 1.558713,-4.819123 z m 0.778343,-0.720309 C 18.371223,15.861427 16.663,21.798 16.663,21.851 v 0.001 c 0.09762,-0.02241 0.183034,-0.04691 0.237034,-0.05791 0.133,-0.027 4.606607,-0.807819 4.626607,-0.826819 0.032,-0.023 1.033756,-5.456808 1.014756,-5.474808 -1.865883,-0.619752 -3.025547,0.251184 -4.151174,0.354964 z M 1.482,11.289 c 0.061377,0.483694 1.2553874,4.994052 1.4438152,4.86127 C 3.8378159,15.471931 6.0360911,13.606849 6.9288691,12.623569 6.8988696,12.512569 5.782,12.429 3.658,11.825 1.628,11.246 1.466,11.206 1.482,11.289 Z m 8.861,-8.4 0.006,-0.007 0.006,-0.009 z m -6.774,8.313 c 1.188,0.34 2.199,0.622 2.249,0.625 0.08,0.004 1.0226171,0.225976 1.5996171,-1.794024 C 7.7666171,8.8109759 7.17,7.377 7.161,7.368 7.114,7.327 2.4318904,6.2687061 2.4098904,6.2917061 c -0.024,0.027 -1.145217,3.6096647 -1.128217,3.6216647 C 1.2846734,9.9163708 2.38,10.859 3.569,11.202 Z"
         id="path144"
         style="fill:#0090a2;fill-opacity:1"
         sodipodi:nodetypes="cccccccccccccccsccccccccccccccccccccc" /></g><text
       xml:space="preserve"
       style="font-style:normal;font-variant:normal;font-weight:normal;font-stretch:normal;font-size:26.4583px;line-height:1.25;font-family:sans-serif;-inkscape-font-specification:'sans-serif, Normal';font-variant-ligatures:normal;font-variant-caps:normal;font-variant-numeric:normal;font-variant-east-asian:normal;fill:#0090a2;fill-opacity:1;stroke:none;stroke-width:0.264583"
       x="101.95522"
       y="79.421631"
       id="text368"><tspan
         sodipodi:role="line"
         id="tspan366"
         style="font-style:normal;font-variant:normal;font-weight:normal;font-stretch:normal;font-size:26.4583px;font-family:sans-serif;-inkscape-font-specification:'sans-serif, Normal';font-variant-ligatures:normal;font-variant-caps:normal;font-variant-numeric:normal;font-variant-east-asian:normal;fill:#0090a2;fill-opacity:1;stroke-width:0.264583"
         x="101.95522"
         y="79.421631">ᚑᚄᚋ</tspan></text></g></svg>
